<?xml version="1.0" encoding="UTF-8"?><svg id="Layer_1" xmlns="http://www.w3.org/2000/svg" width="71.999" height="71.999" viewBox="0 0 71.999 71.999"><defs><style>.cls-1{fill:#fff;}.cls-2{fill:#ee3831;}</style></defs><path class="cls-2" d="M0,71.999h71.999V0H0v71.999Z"/><path class="cls-1" d="M66.797,21.068c-.152.016-.269.023-.35.023-.166,0-.299-.025-.396-.075-.094-.047-.165-.119-.213-.212-.052-.102-.086-.224-.099-.363-.015-.147-.022-.327-.022-.537v-2.735h1.351v-.695h-1.361v-1.607h-1.161v1.607h-.836v.695h.817v3.347c0,.406.082.728.252.95.26.34.739.373,1.077.343.73-.066,1.08-.243,1.289-.339l.024-.01v-.471s-.184.06-.372.078Z"/><path class="cls-1" d="M63.211,20.176c0-.243-.037-.452-.11-.62-.071-.167-.176-.318-.312-.448-.125-.121-.285-.233-.473-.331-.188-.098-.391-.185-.603-.258-.224-.081-.4-.148-.539-.207-.143-.06-.263-.125-.355-.192-.093-.068-.164-.152-.211-.251-.047-.098-.07-.223-.07-.373,0-.193.07-.353.212-.49.143-.136.343-.206.595-.206.309,0,.513.114.728.338.215.225.358.523.423.884l.007.035h.465l-.076-1.745h-.409l-.104.256c-.119-.066-.269-.123-.446-.171-.194-.053-.389-.079-.579-.079-.492,0-1.06.152-1.354.451-.295.3-.445.671-.445,1.103,0,.247.047.466.14.649.091.181.211.337.355.463.134.118.297.221.483.307.182.085.352.152.506.203.182.06.355.124.512.19.149.062.277.134.381.212.096.075.171.165.221.266.05.1.074.221.074.359,0,.274-.077.478-.235.624-.159.145-.39.219-.687.219-.211,0-.378-.051-.547-.152-.169-.101-.316-.228-.439-.379-.115-.143-.215-.306-.297-.486-.081-.176-.135-.333-.16-.467l-.007-.034h-.428l.05,1.88h.428l.088-.311c.104.083.256.17.462.266.235.11.666.165.945.165.531,0,.969-.156,1.302-.465.337-.31.507-.715.507-1.204Z"/><path class="cls-1" d="M45.944,28.859h-2.962c-.201,0-.394.119-.483.296l-4.779,9.374-6.331-10.855-.565-.965-6.392-10.92c-.267-.565-.832-.921-1.455-.921h-10.086v1.117c.359.098.676.296.963.546.385.342.549.772.549,1.322-.001.24-.002.479-.003.719-.01,2.783-.004,5.571-.004,8.353.007,6.206.007,12.405.015,18.611,0,1.128.007,2.264.007,3.392v4.973l.002-.579c0,.24.002.479.003.719,0,.549-.102,1.041-.488,1.383-.287.25-.665.387-1.024.485v1.222h3.522s3.853,0,3.853,0h.123s3.399,0,3.399,0v-1.222c-.36-.098-.737-.235-1.025-.485-.386-.342-.485-.836-.485-1.385l.003-.397c0-1.314-.03-22.754-.03-24.662,0-.066-.008-.141,0-.208.014-.067.037-.141.141-.141.015.03.037.067.059.097l12.951,22.019,10.699-21.606c.067-.127-.03-.282-.178-.282Z"/><path class="cls-1" d="M57.403,54.021l.033-38.697c0-.252-.206-.456-.458-.456l-6.664.003c-.316,0-.58.126-.758.442l-4.29,8.438c-.062.126.03.273.17.273h2.936c.612,0,1.11.492,1.11,1.105.001,6.703.014,27.08.017,28.658v.237c0,.551-.103,1.044-.489,1.386-.288.251-.667.388-1.027.486v1.222l3.408.014h7.526v-1.236c-.36-.098-.739-.235-1.027-.486-.386-.343-.486-.838-.486-1.389Z"/><path class="cls-1" d="M64.307,55.206v-.021c.277-.082.501-.286.501-.625,0-.246-.082-.419-.235-.531-.155-.113-.409-.194-.799-.194-.306,0-.511.03-.727.06v2.57h.411v-1.105h.285c.329,0,.494.122.554.45.051.338.112.573.173.655h.431c-.04-.083-.102-.235-.163-.633-.053-.38-.206-.585-.43-.625ZM63.755,55.043h-.296v-.87c.071-.011.163-.021.296-.021.461,0,.625.225.625.449,0,.318-.287.442-.625.442Z"/><path class="cls-1" d="M63.883,52.821c-1.258,0-2.277,1.033-2.277,2.308s1.02,2.308,2.277,2.308,2.277-1.033,2.277-2.308-1.02-2.308-2.277-2.308ZM63.883,57.081c-1.06,0-1.922-.876-1.922-1.953s.862-1.953,1.922-1.953,1.922.876,1.922,1.953-.862,1.953-1.922,1.953Z"/></svg>